<?xml version="1.0" standalone="no"?>
<!DOCTYPE svg PUBLIC "-//W3C//DTD SVG 20010904//EN"
 "http://www.w3.org/TR/2001/REC-SVG-20010904/DTD/svg10.dtd">
<svg version="1.0" xmlns="http://www.w3.org/2000/svg"
 width="512.000000pt" height="512.000000pt" viewBox="0 0 512.000000 512.000000"
 preserveAspectRatio="xMidYMid meet">
<metadata>
Created by potrace 1.14, written by Peter Selinger 2001-2017
</metadata>
<g transform="translate(0.000000,512.000000) scale(0.100000,-0.100000)"
fill="#000000" stroke="none">
<path d="M2378 5115 c-2 -1 -34 -5 -73 -9 -38 -3 -97 -10 -130 -16 -33 -6 -76
-13 -95 -16 -106 -17 -413 -105 -434 -125 -6 -5 -16 -9 -23 -9 -24 0 -251
-109 -351 -169 -29 -17 -55 -31 -58 -31 -3 0 -29 -18 -59 -40 -30 -22 -58 -40
-64 -40 -5 0 -11 -3 -13 -7 -1 -5 -41 -37 -88 -73 -115 -88 -265 -229 -358
-337 -69 -81 -78 -91 -98 -118 -10 -15 -33 -46 -50 -69 -51 -68 -124 -183
-124 -194 0 -6 -4 -12 -9 -14 -11 -4 -118 -215 -156 -308 -54 -131 -116 -326
-129 -403 -3 -15 -7 -35 -10 -45 -4 -15 -8 -36 -21 -117 -2 -11 -6 -36 -9 -55
-17 -99 -23 -225 -20 -410 1 -113 5 -214 7 -225 3 -11 8 -45 12 -75 6 -45 35
-205 50 -270 13 -57 73 -239 104 -319 41 -102 129 -286 161 -336 11 -16 27
-43 36 -60 19 -35 138 -207 156 -227 7 -7 29 -34 48 -58 194 -251 543 -530
840 -672 141 -67 164 -78 171 -78 3 0 24 -8 45 -17 22 -9 41 -17 44 -18 34 -9
97 -30 105 -36 10 -7 235 -64 290 -73 17 -2 44 -7 60 -10 122 -23 222 -30 420
-31 245 0 370 13 600 65 127 28 321 94 443 151 35 16 70 29 78 29 8 0 14 4 14
9 0 5 19 17 43 27 117 52 370 223 510 346 76 67 208 199 250 251 17 22 39 47
48 56 26 26 122 160 181 252 154 239 289 572 342 840 11 55 17 87 20 109 3 14
5 25 6 25 1 0 3 11 4 25 2 14 7 61 11 105 17 153 10 534 -11 625 -3 14 -6 32
-6 40 -1 23 -46 227 -67 305 -41 150 -123 350 -208 508 -52 96 -130 226 -143
237 -4 3 -20 25 -37 50 -104 153 -352 413 -477 500 -12 8 -30 23 -41 33 -33
30 -234 162 -320 208 -66 37 -201 101 -290 140 -33 14 -225 79 -248 83 -12 3
-58 14 -102 25 -85 21 -93 22 -255 47 -88 14 -510 29 -522 19z"/>
</g>
</svg>
